# xmcd
#
# Track frame offsets: 
#        150
#        16705
#        31869
#        50814
#        66387
#        88785
#        110471
#        133734
#        154526
#        171806
#        189531
#
# Disc length: 2762 seconds
#
# Revision: 0
# Processed by: cddbd v1.5.2PL0 Copyright (c) Steve Scherf et al.
# Submitted via: ExactAudioCopyFreeDBPlugin 1.0
#
DISCID=8e0ac80b
DTITLE=wirtz - auf die plätze fertig los! tour audio cd1
DYEAR=2015
DGENRE=Rock
TTITLE0=auf die plätze fertig los
TTITLE1=regentropfen
TTITLE2=siehst du mich
TTITLE3=du fährst im dunkeln
TTITLE4=freitag abend
TTITLE5=wir
TTITLE6=frei
TTITLE7=ich weiß es nicht
TTITLE8=aus versehen
TTITLE9=ne weile her
TTITLE10=viel glück
EXTD=
EXTT0=
EXTT1=
EXTT2=
EXTT3=
EXTT4=
EXTT5=
EXTT6=
EXTT7=
EXTT8=
EXTT9=
EXTT10=
PLAYORDER=
